<svg xmlns="http://www.w3.org/2000/svg" xmlns:xlink="http://www.w3.org/1999/xlink" width="706" height="654.209" viewBox="0 0 706 654.209">
  <defs>
    <linearGradient id="linear-gradient" x1="0.07" y1="1.186" x2="0.956" y2="0.127" gradientUnits="objectBoundingBox">
      <stop offset="0" stop-color="#e58def"/>
      <stop offset="0.02" stop-color="#e391ef"/>
      <stop offset="0.183" stop-color="#d7aff3"/>
      <stop offset="0.355" stop-color="#cdc6f6"/>
      <stop offset="0.538" stop-color="#c7d7f9"/>
      <stop offset="0.741" stop-color="#c3e0fa"/>
      <stop offset="1" stop-color="#c2e4fb"/>
    </linearGradient>
    <linearGradient id="linear-gradient-2" x1="-0.029" y1="0.965" x2="1.04" y2="0.025" xlink:href="#linear-gradient"/>
    <linearGradient id="linear-gradient-3" x1="-1.228" y1="17.453" x2="0.864" y2="-3.072" xlink:href="#linear-gradient"/>
    <linearGradient id="linear-gradient-4" x1="-1.124" y1="27.061" x2="0.967" y2="-7.144" xlink:href="#linear-gradient"/>
    <linearGradient id="linear-gradient-5" x1="-1.055" y1="25.919" x2="1.037" y2="-8.285" xlink:href="#linear-gradient"/>
    <linearGradient id="linear-gradient-6" x1="-1.509" y1="23.995" x2="1.416" y2="-10.21" xlink:href="#linear-gradient"/>
    <linearGradient id="linear-gradient-7" x1="-1.412" y1="22.853" x2="1.514" y2="-11.351" xlink:href="#linear-gradient"/>
    <linearGradient id="linear-gradient-8" x1="-1.314" y1="21.712" x2="1.611" y2="-12.492" xlink:href="#linear-gradient"/>
    <linearGradient id="linear-gradient-9" x1="-0.199" y1="17.944" x2="1.172" y2="-16.26" xlink:href="#linear-gradient"/>
    <linearGradient id="linear-gradient-10" x1="-0.247" y1="19.133" x2="1.124" y2="-15.071" xlink:href="#linear-gradient"/>
    <linearGradient id="linear-gradient-13" x1="-0.518" y1="13.196" x2="2.225" y2="-21.008" xlink:href="#linear-gradient"/>
    <linearGradient id="linear-gradient-14" x1="-0.141" y1="16.481" x2="1.231" y2="-17.724" xlink:href="#linear-gradient"/>
    <linearGradient id="linear-gradient-15" x1="-0.119" y1="11.409" x2="1.822" y2="-22.796" xlink:href="#linear-gradient"/>
    <linearGradient id="linear-gradient-16" x1="-0.034" y1="13.828" x2="1.337" y2="-20.376" xlink:href="#linear-gradient"/>
    <linearGradient id="linear-gradient-17" x1="-0.093" y1="7.891" x2="2.65" y2="-26.313" xlink:href="#linear-gradient"/>
    <linearGradient id="linear-gradient-18" x1="0.072" y1="11.175" x2="1.443" y2="-23.029" xlink:href="#linear-gradient"/>
    <linearGradient id="linear-gradient-19" x1="-1.08" y1="2.248" x2="1.724" y2="-0.854" xlink:href="#linear-gradient"/>
    <linearGradient id="linear-gradient-20" x1="0.248" y1="1.026" x2="1.286" y2="-1.255" gradientUnits="objectBoundingBox">
      <stop offset="0" stop-color="#371a4f"/>
      <stop offset="0.497" stop-color="#401f5a"/>
      <stop offset="1" stop-color="#462261"/>
    </linearGradient>
    <linearGradient id="linear-gradient-21" x1="0.141" y1="1.463" x2="0.692" y2="-0.157" xlink:href="#linear-gradient-20"/>
    <linearGradient id="linear-gradient-22" x1="0.852" y1="0.991" x2="0.21" y2="0.048" gradientUnits="objectBoundingBox">
      <stop offset="0.36" stop-color="#4625ac"/>
      <stop offset="0.446" stop-color="#522bb8"/>
      <stop offset="0.603" stop-color="#6334c8"/>
      <stop offset="0.777" stop-color="#6c3ad1"/>
      <stop offset="1" stop-color="#703cd5"/>
    </linearGradient>
    <linearGradient id="linear-gradient-23" x1="-5.007" y1="2.988" x2="1.971" y2="-0.165" gradientUnits="objectBoundingBox">
      <stop offset="0" stop-color="#e58def"/>
      <stop offset="1" stop-color="#c2e4fb"/>
    </linearGradient>
    <linearGradient id="linear-gradient-24" x1="-7.006" y1="3.891" x2="2.227" y2="-0.28" xlink:href="#linear-gradient-23"/>
    <linearGradient id="linear-gradient-25" x1="-3.26" y1="2.199" x2="8.752" y2="-3.228" xlink:href="#linear-gradient-23"/>
    <linearGradient id="linear-gradient-26" x1="-1.036" y1="1.194" x2="8.197" y2="-2.977" xlink:href="#linear-gradient-23"/>
  </defs>
  <g id="Group_7577" data-name="Group 7577" transform="translate(-162 -286.27)">
    <g id="Group_7532" data-name="Group 7532" transform="translate(-12.1 -115.716)">
      <path id="Path_5772" data-name="Path 5772" d="M889.729,1331.376a89.167,89.167,0,0,1-15.367,33.379q-.271.37-.547.735-1.658.041-3.661.08c-2.375.047-5.111.093-8.185.137q-.917.014-1.877.026-2.1.03-4.4.058-2.5.032-5.237.062l-1.542.018c-.314,0-.631,0-.95.009-.776.005-1.563.017-2.368.024l-1.4.015-2.457.026-2.534.022q-2.928.022-6.043.055l-12.782.1q-9.295.069-19.769.13-5.1.03-10.458.056-8.742.05-18.154.091c-40.1.184-88.911.31-142.432.357-15.006.011-30.38.017-46.04.017q-4.077,0-8.136,0c-73.77-.007-140.849-.168-191.846-.429-15.015-.075-28.631-.159-40.616-.248l-4.31-.036-2.227-.018-2.838-.022c-.558,0-1.117-.009-1.666-.015l-7.222-.068q-2.6-.022-5.046-.049c-1.354-.011-2.665-.029-3.94-.042-.75-.011-1.487-.018-2.213-.026l-1.51-.018-3.492-.046c-.89-.013-1.76-.026-2.6-.036l-2.109-.033-.257,0-.121,0c-4.042-.062-7.437-.126-10.139-.19q-.274-.367-.545-.735a89.165,89.165,0,0,1-15.367-33.379,90.575,90.575,0,0,1,17.293-75.06c11.939-14.982,28.926-26.5,36.172-44.233,6.943-17,3.508-36.179,3.926-54.532.983-43.417,24.8-84.379,58.19-112.153s75.508-43.412,118.225-51.245c23.9-4.382,48.106-6.463,72.4-7.525,24.293,1.062,48.5,3.143,72.4,7.525,42.717,7.833,84.839,23.472,118.226,51.245s57.206,68.735,58.19,112.153c.418,18.353-3.017,37.536,3.926,54.532,7.246,17.733,24.232,29.251,36.172,44.233A90.575,90.575,0,0,1,889.729,1331.376Z" transform="translate(-11.701 -343.973)" opacity="0.35" fill="url(#linear-gradient)"/>
      <g id="Group_7531" data-name="Group 7531" transform="translate(174.1 593.879)">
        <g id="Group_7549" data-name="Group 7549" transform="translate(442.646 148.848) rotate(22)">
          <g id="Group_7395" data-name="Group 7395" transform="translate(26.69 0)">
            <path id="Path_5723" data-name="Path 5723" d="M95.741,104.433c.03-16.261-2.031-32.287-7.566-46.167C66.036,2.745,62.323,0,62.323,0s-117.617,186.223-29.7,217.956q6.322,2.279,11.751,4.053C116.418,245.559,95.652,153.217,95.741,104.433Z" transform="translate(0)" fill="#4f7b16"/>
            <path id="Path_5724" data-name="Path 5724" d="M42.476,221.494c5.936-27.234,12.457-56.853,16.512-74.349,1.908-8.235,3.231-19.413,4.133-31.95l32.247-14c-.02-1.257-.057-2.513-.1-3.768L63.39,111.267C64.213,98.3,64.622,84.092,64.779,70.3L86.536,55.033l-1.357-3.378L64.821,65.938c.216-28.186-.558-53.894-.866-62.815A13.251,13.251,0,0,0,61.976,0s-.632,1-1.763,2.859c.2,6.007.657,21.124.816,39.743L45.66,28.316q-.863,1.6-1.751,3.264L61.063,47.525c.061,11.513,0,24.1-.3,36.567L28.522,62.485q-.745,1.62-1.49,3.262L60.645,88.279c-.47,16.181-1.375,31.9-2.973,44.472l-30.26-12.34L14.486,96.188q-.852,2.32-1.675,4.654l9.288,17.4L8.842,112.836c-.344,1.121-.686,2.239-1.015,3.358l49.361,20.133c-.543,3.722-1.153,7.114-1.844,10.094-1.584,6.834-3.546,15.523-5.7,25.188L.33,152.173C.2,153.39.091,154.6,0,155.8l48.877,19.261c-3.138,14.117-6.627,30.036-9.942,45.24Q40.746,220.92,42.476,221.494Z" transform="translate(0.348 0)" fill="#c1e56b"/>
          </g>
          <g id="Group_7396" data-name="Group 7396" transform="translate(48.654 96.332)">
            <path id="Path_5725" data-name="Path 5725" d="M67.274,48.115c10.544-10.408,22.268-19.5,34.821-25.289C152.3-.316,156.458,0,156.458,0S110.677,184.576,33.879,155.846q-5.522-2.064-10.143-3.959C-37.6,126.783,35.647,79.342,67.274,48.115Z" transform="translate(0 0)" fill="#a4c031"/>
            <path id="Path_5726" data-name="Path 5726" d="M0,152.426c13.9-20.717,28.964-43.281,37.735-56.721,4.129-6.326,10.544-14.208,18.11-22.721L44.325,46.062q1.247-1.189,2.513-2.349l11.387,26.61c7.9-8.752,16.861-18.054,25.721-26.958L79.956,21.482l3.061-1.4,3.735,20.477C104.919,22.421,122.112,6.422,128.1.893A13.562,13.562,0,0,1,131.395,0s-.246.993-.73,2.809c-4.03,3.727-14.139,13.135-26.333,24.945l19.1-.563q-.487,1.5-1,3.064l-21.319.627C93.6,38.205,85.456,46.288,77.556,54.423l34.637,4.16q-.575,1.449-1.166,2.916L74.91,57.161C64.7,67.763,55.071,78.31,47.925,87.24l27.356,8.98,23.992-8.276q-.963,1.961-1.952,3.909L80.083,97.8l11.983,3.934q-.76,1.363-1.532,2.713L45.914,89.8c-2.073,2.681-3.885,5.189-5.378,7.479-3.428,5.251-7.817,11.894-12.718,19.272l44.141,15.071q-1.066,1.268-2.144,2.5L26.07,119.181C18.9,129.951,10.8,142.07,3.042,153.634Q1.478,153.022,0,152.426Z" transform="translate(25.064 0)" fill="#4f7b16"/>
          </g>
          <g id="Group_7547" data-name="Group 7547" transform="matrix(-0.848, 0.53, -0.53, -0.848, 117.11, 225.772)">
            <path id="Path_5725-2" data-name="Path 5725" d="M47.671,62.741c-5.542,5.73-11.754,10.69-18.484,13.752C2.272,88.741,0,88.484,0,88.484S21.294-15.728,63.739,2.038q3.052,1.276,5.609,2.44C103.289,19.9,64.3,45.549,47.671,62.741Z" transform="translate(0 0)" fill="#1b931b"/>
            <path id="Path_5726-2" data-name="Path 5726" d="M68.614.743c-7.165,11.535-14.933,24.1-19.448,31.589a107.889,107.889,0,0,1-9.423,12.6l6.816,15.535q-.656.654-1.324,1.291L38.5,46.4c-4.133,4.836-8.835,9.965-13.488,14.87L27.62,73.8l-1.641.742L23.535,62.819C13.99,72.807,4.934,81.6,1.777,84.633A6.815,6.815,0,0,1,0,85.08S.114,84.52.342,83.5C2.466,81.448,7.791,76.279,14.2,69.782L3.8,69.751q.236-.847.483-1.725l11.612.036c3.953-4.03,8.23-8.481,12.377-12.965L9.306,52.091q.285-.814.578-1.638l19.779,3.134c5.356-5.846,10.4-11.672,14.116-16.623L28.684,31.348,15.767,35.617q.486-1.1.987-2.189l9.281-3.065L19.422,27.9q.387-.762.781-1.516l24.62,9.158c1.077-1.488,2.015-2.882,2.784-4.158,1.765-2.925,4.026-6.626,6.551-10.735L29.792,11.262q.556-.7,1.12-1.382L55.06,19.186c3.693-6,7.873-12.747,11.871-19.186Q67.8.377,68.614.743Z" transform="translate(0 3.404)" fill="#97d57c"/>
          </g>
        </g>
        <g id="Group_7546" data-name="Group 7546" transform="translate(75.149 198.815) rotate(-11)">
          <g id="Group_7395-2" data-name="Group 7395" transform="translate(74.086 0)">
            <path id="Path_5723-2" data-name="Path 5723" d="M2.512,104.433c-.027-16.261,1.882-32.287,7.01-46.167C30.03,2.745,33.47,0,33.47,0S142.434,186.223,60.982,217.956q-5.857,2.279-10.887,4.053C-16.644,245.559,2.594,153.217,2.512,104.433Z" transform="translate(0 0)" fill="#4f7b16"/>
            <path id="Path_5724-2" data-name="Path 5724" d="M49,221.494c-5.5-27.234-11.541-56.853-15.3-74.349-1.768-8.235-2.993-19.413-3.829-31.95L0,101.2c.018-1.257.052-2.513.1-3.768l29.53,13.835C28.863,98.3,28.485,84.092,28.339,70.3L8.183,55.033,9.44,51.655,28.3,65.938c-.2-28.186.517-53.894.8-62.815A13.355,13.355,0,0,1,30.936,0s.585,1,1.633,2.859c-.189,6.007-.608,21.124-.756,39.743L46.051,28.316q.8,1.6,1.622,3.264L31.781,47.525c-.057,11.513,0,24.1.282,36.567L61.929,62.485q.69,1.62,1.381,3.262L32.168,88.279c.435,16.181,1.273,31.9,2.754,44.472l28.034-12.34L74.932,96.188q.789,2.32,1.551,4.654l-8.6,17.4,12.281-5.406c.319,1.121.636,2.239.941,3.358L35.371,136.327c.5,3.722,1.068,7.114,1.708,10.094,1.467,6.834,3.285,15.523,5.281,25.188l45.686-19.436c.116,1.216.221,2.426.305,3.624L43.071,175.059c2.907,14.117,6.139,30.036,9.21,45.24Q50.6,220.92,49,221.494Z" transform="translate(2.534 0)" fill="#c1e56b"/>
          </g>
          <g id="Group_7396-2" data-name="Group 7396" transform="translate(0 96.332)">
            <path id="Path_5725-3" data-name="Path 5725" d="M82.622,48.115c-9.768-10.408-20.63-19.5-32.259-25.289C3.85-.316,0,0,0,0S42.413,184.576,113.56,155.846q5.115-2.064,9.4-3.959C179.779,126.783,111.922,79.342,82.622,48.115Z" transform="translate(0 0)" fill="#a4c031"/>
            <path id="Path_5726-3" data-name="Path 5726" d="M121.727,152.426c-12.873-20.717-26.833-43.281-34.959-56.721C82.944,89.379,77,81.5,69.991,72.984L80.663,46.062q-1.155-1.189-2.328-2.349l-10.55,26.61C60.468,61.571,52.165,52.27,43.957,43.365l3.7-21.883-2.836-1.4-3.46,20.477C24.528,22.421,8.6,6.422,3.05.893A11.808,11.808,0,0,0,0,0S.228.993.677,2.809c3.734,3.727,13.1,13.135,24.4,24.945L7.379,27.191q.451,1.5.925,3.064l19.751.627c6.964,7.324,14.5,15.406,21.824,23.541l-32.089,4.16q.533,1.449,1.08,2.916l33.46-4.337c9.458,10.6,18.379,21.149,25,30.079L51.985,96.22,29.758,87.944q.892,1.961,1.809,3.909L47.536,97.8l-11.1,3.934q.7,1.363,1.419,2.713L79.192,89.8c1.92,2.681,3.6,5.189,4.982,7.479,3.176,5.251,7.242,11.894,11.782,19.272L55.063,131.619q.988,1.268,1.986,2.5l40.526-14.935c6.638,10.77,14.149,22.89,21.334,34.453Q120.358,153.022,121.727,152.426Z" transform="translate(0 0)" fill="#4f7b16"/>
          </g>
          <g id="Group_7547-2" data-name="Group 7547" transform="translate(124.967 150.733) rotate(32)">
            <path id="Path_5725-4" data-name="Path 5725" d="M46,26.788C40.562,20.993,34.514,15.93,28.04,12.709,2.143-.176,0,0,0,0S23.613,102.763,63.225,86.767q2.848-1.149,5.232-2.2C100.092,70.586,62.313,44.174,46,26.788Z" transform="translate(0 0)" fill="#1b931b"/>
            <path id="Path_5726-4" data-name="Path 5726" d="M67.772,84.863C60.6,73.329,52.832,60.767,48.308,53.284a116.274,116.274,0,0,0-9.341-12.65l5.942-14.989q-.643-.662-1.3-1.308L37.74,39.153c-4.074-4.873-8.7-10.051-13.266-15.009L26.532,11.96l-1.579-.781-1.927,11.4C13.656,12.483,4.788,3.575,1.7.5A6.574,6.574,0,0,0,0,0S.127.553.377,1.564C2.455,3.639,7.669,8.877,13.959,15.452l-9.851-.313q.251.837.515,1.706l11,.349c3.877,4.078,8.075,8.577,12.15,13.107L9.9,32.616q.3.807.6,1.623l18.629-2.415C34.4,37.727,39.367,43.6,43.052,48.571l-14.11,5L16.568,48.963q.5,1.092,1.007,2.176l8.891,3.309-6.18,2.19q.392.759.79,1.511L44.09,49.994c1.069,1.493,2,2.889,2.774,4.164,1.768,2.923,4.032,6.622,6.56,10.73L30.656,73.279q.55.706,1.106,1.39l22.563-8.315c3.7,6,7.877,12.744,11.878,19.182Q67.009,85.2,67.772,84.863Z" transform="translate(0 0)" fill="#97d57c"/>
          </g>
        </g>
        <g id="Group_7515" data-name="Group 7515" transform="translate(253.788 0)">
          <rect id="Rectangle_765" data-name="Rectangle 765" width="287.871" height="427.611" transform="translate(0)" fill="url(#linear-gradient-2)"/>
          <path id="Path_5785" data-name="Path 5785" d="M928.155,792.844v427.611h287.872V792.844Zm280.492,420.231H935.535V800.224h273.112Z" transform="translate(-928.155 -792.844)" fill="#ff6161" style="mix-blend-mode: multiply;isolation: isolate"/>
          <g id="Group_7512" data-name="Group 7512" transform="translate(26.159 35.12)">
            <rect id="Rectangle_766" data-name="Rectangle 766" width="127.396" height="18.25" transform="translate(107.342)" opacity="0.75" fill="url(#linear-gradient-3)" style="mix-blend-mode: multiply;isolation: isolate"/>
            <rect id="Rectangle_767" data-name="Rectangle 767" width="127.396" height="10.951" transform="translate(107.342 31.548)" opacity="0.75" fill="url(#linear-gradient-4)" style="mix-blend-mode: multiply;isolation: isolate"/>
            <rect id="Rectangle_768" data-name="Rectangle 768" width="127.396" height="10.951" transform="translate(107.342 50.374)" opacity="0.75" fill="url(#linear-gradient-5)" style="mix-blend-mode: multiply;isolation: isolate"/>
            <rect id="Rectangle_769" data-name="Rectangle 769" width="91.097" height="10.951" transform="translate(107.342 69.201)" opacity="0.75" fill="url(#linear-gradient-6)" style="mix-blend-mode: multiply;isolation: isolate"/>
            <rect id="Rectangle_770" data-name="Rectangle 770" width="91.097" height="10.951" transform="translate(107.342 88.027)" opacity="0.75" fill="url(#linear-gradient-7)" style="mix-blend-mode: multiply;isolation: isolate"/>
            <rect id="Rectangle_771" data-name="Rectangle 771" width="91.097" height="10.951" transform="translate(107.342 106.854)" opacity="0.75" fill="url(#linear-gradient-8)" style="mix-blend-mode: multiply;isolation: isolate"/>
            <rect id="Rectangle_772" data-name="Rectangle 772" width="194.312" height="10.951" transform="translate(40.427 206.604)" opacity="0.75" fill="url(#linear-gradient-9)" style="mix-blend-mode: multiply;isolation: isolate"/>
            <rect id="Rectangle_773" data-name="Rectangle 773" width="194.312" height="10.951" transform="translate(40.427 186.995)" opacity="0.75" fill="url(#linear-gradient-10)" style="mix-blend-mode: multiply;isolation: isolate"/>
            <path id="Path_5786" data-name="Path 5786" d="M1032.081,1675.286v30.56h30.561v-30.56Zm26.272,26.271H1036.37v-21.983h21.983Z" transform="translate(-1032.081 -1488.291)" fill="#daa7f2" style="mix-blend-mode: multiply;isolation: isolate"/>
            <g id="Group_7507" data-name="Group 7507" transform="translate(0.815 188.74)">
              <path id="Path_5787" data-name="Path 5787" d="M1045.951,1708.48l-10.633-13.319,5.361-4.279,5.4,6.762,12.912-15.426,5.26,4.4Z" transform="translate(-1035.319 -1682.217)" fill="#fff"/>
            </g>
            <rect id="Rectangle_774" data-name="Rectangle 774" width="194.312" height="10.951" transform="translate(40.427 161.555)" opacity="0.75" fill="url(#linear-gradient-9)" style="mix-blend-mode: multiply;isolation: isolate"/>
            <rect id="Rectangle_775" data-name="Rectangle 775" width="194.312" height="10.951" transform="translate(40.427 141.946)" opacity="0.75" fill="url(#linear-gradient-10)" style="mix-blend-mode: multiply;isolation: isolate"/>
            <path id="Path_5788" data-name="Path 5788" d="M1032.081,1496.31v30.561h30.561V1496.31Zm26.272,26.272H1036.37V1500.6h21.983Z" transform="translate(-1032.081 -1354.364)" fill="#daa7f2" style="mix-blend-mode: multiply;isolation: isolate"/>
            <g id="Group_7508" data-name="Group 7508" transform="translate(0.815 143.691)">
              <path id="Path_5789" data-name="Path 5789" d="M1045.951,1529.5l-10.633-13.319,5.361-4.279,5.4,6.762,12.912-15.426,5.26,4.4Z" transform="translate(-1035.319 -1503.242)" fill="#fff"/>
            </g>
            <rect id="Rectangle_776" data-name="Rectangle 776" width="97.156" height="10.951" transform="translate(40.427 250.357)" opacity="0.75" fill="url(#linear-gradient-13)" style="mix-blend-mode: multiply;isolation: isolate"/>
            <rect id="Rectangle_777" data-name="Rectangle 777" width="194.312" height="10.951" transform="translate(40.427 230.747)" opacity="0.75" fill="url(#linear-gradient-14)" style="mix-blend-mode: multiply;isolation: isolate"/>
            <path id="Path_5790" data-name="Path 5790" d="M1032.081,1849.11v30.56h30.561v-30.56Zm26.272,26.271H1036.37V1853.4h21.983Z" transform="translate(-1032.081 -1618.363)" fill="#daa7f2" style="mix-blend-mode: multiply;isolation: isolate"/>
            <g id="Group_7509" data-name="Group 7509" transform="translate(0.815 232.492)">
              <path id="Path_5791" data-name="Path 5791" d="M1045.951,1882.3l-10.633-13.319,5.361-4.279,5.4,6.762,12.912-15.426,5.26,4.4Z" transform="translate(-1035.319 -1856.042)" fill="#fff"/>
            </g>
            <rect id="Rectangle_778" data-name="Rectangle 778" width="137.262" height="10.951" transform="translate(40.427 294.109)" opacity="0.75" fill="url(#linear-gradient-15)" style="mix-blend-mode: multiply;isolation: isolate"/>
            <rect id="Rectangle_779" data-name="Rectangle 779" width="194.312" height="10.951" transform="translate(40.427 274.5)" opacity="0.75" fill="url(#linear-gradient-16)" style="mix-blend-mode: multiply;isolation: isolate"/>
            <path id="Path_5792" data-name="Path 5792" d="M1032.081,2022.933v30.561h30.561v-30.561Zm26.272,26.272H1036.37v-21.983h21.983Z" transform="translate(-1032.081 -1748.434)" fill="#daa7f2" style="mix-blend-mode: multiply;isolation: isolate"/>
            <rect id="Rectangle_780" data-name="Rectangle 780" width="97.156" height="10.951" transform="translate(40.427 337.861)" opacity="0.75" fill="url(#linear-gradient-17)" style="mix-blend-mode: multiply;isolation: isolate"/>
            <rect id="Rectangle_781" data-name="Rectangle 781" width="194.312" height="10.951" transform="translate(40.427 318.252)" opacity="0.75" fill="url(#linear-gradient-18)" style="mix-blend-mode: multiply;isolation: isolate"/>
            <path id="Path_5794" data-name="Path 5794" d="M1032.081,2196.757v30.561h30.561v-30.561Zm26.272,26.272H1036.37v-21.983h21.983Z" transform="translate(-1032.081 -1878.505)" fill="#daa7f2" style="mix-blend-mode: multiply;isolation: isolate"/>
          </g>
          <g id="Group_7514" data-name="Group 7514" transform="translate(26.159 35.12)">
            <rect id="Rectangle_782" data-name="Rectangle 782" width="96.074" height="117.805" fill="url(#linear-gradient-19)" style="mix-blend-mode: screen;isolation: isolate"/>
            <path id="Path_5796" data-name="Path 5796" d="M1128.156,1278.921v9.541h-96.073v-9.541a17.773,17.773,0,0,1,11.332-16.23l19.1-7.928,2.454-1.018,7.072-2.937,8.083,1.266,8.083-1.266,7.072,2.937,2.453,1.018,19.1,7.928A17.772,17.772,0,0,1,1128.156,1278.921Z" transform="translate(-1032.083 -1170.657)" fill="#311649"/>
            <path id="Path_5797" data-name="Path 5797" d="M1197.055,1228.927l-13.114-3.527-13.114,3.527,13.114,7.783Z" transform="translate(-1135.904 -1151.643)" fill="#f2e7ea"/>
            <path id="Path_5798" data-name="Path 5798" d="M1193.028,1253.746l-3.831,34.716h-22.649l-3.831-34.716,7.072-2.937,8.083,1.266,8.083-1.266Z" transform="translate(-1129.835 -1170.657)" fill="#f2e7ea"/>
            <g id="Group_7513" data-name="Group 7513" transform="translate(30.609 24.306)">
              <path id="Path_5799" data-name="Path 5799" d="M1199.014,1198.31a32.5,32.5,0,0,0,1.525,10.267h-22.36a35.385,35.385,0,0,0,.62-18.223,23.658,23.658,0,0,0-.62-2.3l11.18,1.916,11.18-1.916A35.322,35.322,0,0,0,1199.014,1198.31Z" transform="translate(-1172.015 -1148.002)" fill="#f68895"/>
              <path id="Path_5800" data-name="Path 5800" d="M1200.539,1188.051a35.322,35.322,0,0,0-1.525,10.259v0c-15.393,5.351-20.214-7.96-20.214-7.96a23.658,23.658,0,0,0-.62-2.3l11.18,1.916Z" transform="translate(-1172.015 -1148.002)" fill="#f17785"/>
              <path id="Path_5801" data-name="Path 5801" d="M1193.235,1080.146c0,11.6-6.663,23.818-14.882,23.818s-14.882-12.214-14.882-23.818,6.663-18.2,14.882-18.2S1193.235,1068.543,1193.235,1080.146Z" transform="translate(-1161.009 -1053.637)" fill="#f68895"/>
              <path id="Path_5802" data-name="Path 5802" d="M1216.567,1181.016a10.076,10.076,0,0,1-4.447-.161.475.475,0,0,0-.568.556,3.066,3.066,0,0,0,1.24,2.128,3.153,3.153,0,0,0,3.12.252,2.689,2.689,0,0,0,1.189-2.2A.478.478,0,0,0,1216.567,1181.016Z" transform="translate(-1196.983 -1142.606)" fill="#f9dee4"/>
              <path id="Path_5803" data-name="Path 5803" d="M1276.165,1131.408a1.094,1.094,0,0,1,.939-1.38,1.637,1.637,0,0,1,1.465,1.044,4.773,4.773,0,0,1,.322,1.945,11.475,11.475,0,0,1-.786,4.825,4.919,4.919,0,0,1-3.453,2.995Z" transform="translate(-1244.204 -1104.582)" fill="#f68895"/>
              <path id="Path_5804" data-name="Path 5804" d="M1156.416,1131.408a1.093,1.093,0,0,0-.939-1.38,1.637,1.637,0,0,0-1.465,1.044,4.773,4.773,0,0,0-.322,1.945,11.477,11.477,0,0,0,.787,4.825,4.92,4.92,0,0,0,3.453,2.995Z" transform="translate(-1153.688 -1104.582)" fill="#f68895"/>
              <path id="Path_5805" data-name="Path 5805" d="M1184.9,1079.072s5.855,10.573,20.825,4.662l1.013-2.44Z" transform="translate(-1177.047 -1066.453)" fill="#f17785"/>
              <path id="Path_5806" data-name="Path 5806" d="M1192.783,1038.69a67.8,67.8,0,0,0-11.591-7.119,25.381,25.381,0,0,0-7.252-2.482,11.335,11.335,0,0,0-7.434,1.237,8.136,8.136,0,0,0-3.542,4.358h0s-6.932.659-4.59,12.066a41.982,41.982,0,0,0,2.134,11.871,26.569,26.569,0,0,0,1.737-5.135c1.177-3.779,2.509-8.786,2.445-11.928h0a13.5,13.5,0,0,0,4.213,3.216,19.386,19.386,0,0,0,9.773,1.586,22.559,22.559,0,0,0,6.939-1.524,26.951,26.951,0,0,0,2.292,13.786,41.991,41.991,0,0,0,2.134-11.871,18.127,18.127,0,0,0-.209-4.43A13.32,13.32,0,0,0,1192.783,1038.69Z" transform="translate(-1156.832 -1028.939)" fill="#311649"/>
            </g>
            <path id="Path_5807" data-name="Path 5807" d="M1206.067,1278.77l4.135,24.3h-12.9l4.135-24.3-4.135-8.437h12.9Z" transform="translate(-1155.714 -1185.267)" fill="#462261"/>
            <path id="Path_5808" data-name="Path 5808" d="M1236.042,1239.411l-13.114,7.783,5.955,8.436,10.209-9.812Z" transform="translate(-1174.891 -1162.128)" fill="#fff"/>
            <path id="Path_5809" data-name="Path 5809" d="M1161.759,1239.411l13.114,7.783-5.955,8.436-10.21-9.812Z" transform="translate(-1126.836 -1162.128)" fill="#fff"/>
          </g>
        </g>
        <g id="Group_7523" data-name="Group 7523" transform="translate(0 27.791)">
          <path id="Path_5835" data-name="Path 5835" d="M1036.059,2019.818a18.022,18.022,0,0,1,2.313-5.787,5.433,5.433,0,0,1,9.087-.74c1.1,1.208,1.875,3.036,1.068,4.459a2.487,2.487,0,0,1-4.632-.923c.42,3.857-2.084,7.935-5.35,10.029C1037.638,2025.053,1036.967,2021.621,1036.059,2019.818Z" transform="translate(-839.4 -1919.767)" fill="#f68895"/>
          <path id="Path_5836" data-name="Path 5836" d="M815.513,2455.085a40.164,40.164,0,0,0-6.214,22.8,135.528,135.528,0,0,0,24.25.26c1.019-3.751-.586-7.625-1.946-11.266s-2.795-7.521-1.987-11.324C825.061,2455.264,820.075,2454.938,815.513,2455.085Z" transform="translate(-758.171 -2078.753)" fill="#311649"/>
          <path id="Path_5837" data-name="Path 5837" d="M895.9,2448.808a54.942,54.942,0,0,1-1.194,25.168,102.11,102.11,0,0,0,34.649,1.394c1.442-1.734.833-4.688-.57-6.455a11.344,11.344,0,0,0-5.733-3.4,41.913,41.913,0,0,1-6.425-2.094A12.8,12.8,0,0,1,909.8,2450.6C905.786,2448.521,900.363,2448.119,895.9,2448.808Z" transform="translate(-788.77 -2076.407)" fill="#311649"/>
          <path id="Path_5838" data-name="Path 5838" d="M885.232,2335.694a4.914,4.914,0,0,1-4.466,4.172q-6.062.459-12.281.725a4.92,4.92,0,0,1-5.091-5.36,610.811,610.811,0,0,0-1.667-126.326c-1.33-11.55-2.861-22.081-4.423-31.414q-1.106,16.6-2.417,31.313c-6.046,68.642-14.729,107.457-20.881,127.858a4.9,4.9,0,0,1-5.01,3.466c-4.016-.275-7.976-.6-11.886-1a4.887,4.887,0,0,1-4.348-5.479c6.44-51.2,9.251-92.033,10.169-123.6q.272-9.868.331-18.533.075-9.623-.087-17.821c-.031-1.656-.063-3.267-.107-4.835-.037-1.475-.074-2.9-.125-4.285q-.206-6.372-.512-11.725c-.069-1.237-.138-2.424-.213-3.573-.006-.094-.013-.193-.019-.286-.025-.444-.056-.887-.088-1.325-.131-1.942-.262-3.772-.406-5.49-.006-.2-.025-.407-.044-.6-.094-1.068-.182-2.1-.269-3.08-.431-4.6-.862-8.164-1.205-10.743l37.347.787,24.311.525c.168.987.344,1.973.518,2.966.031.226.075.457.106.682.319,1.856.612,3.71.912,5.553q.965,6.053,1.8,12.031a.8.8,0,0,1,.025.132q.534,3.9,1.037,7.745v.007q.571,4.478,1.074,8.9c.081.713.162,1.425.237,2.137.037.313.069.631.106.943q.44,4.029.825,8,.581,6.025,1.055,11.938.835,10.568,1.318,20.688A657.759,657.759,0,0,1,885.232,2335.694Z" transform="translate(-759.405 -1961.522)" fill="#462261"/>
          <path id="Path_5839" data-name="Path 5839" d="M891.176,2366.464a4.891,4.891,0,0,1-2.9-4.946A610.413,610.413,0,0,0,886.6,2235.19c-1.328-11.544-2.859-22.076-4.418-31.412l10.569-2.636S904.545,2298.382,891.176,2366.464Z" transform="translate(-784.285 -1987.808)" fill="#371a4f"/>
          <path id="Path_5840" data-name="Path 5840" d="M854.209,1972.761l3.661-1.369-1.35,7.191Z" transform="translate(-774.265 -1905.516)" fill="#d3c7cb"/>
          <path id="Path_5841" data-name="Path 5841" d="M872.152,2071.9c1.021,6.463,2.237,13.128,3.672,19.923q-7.765.965-15.567,1.446a249.639,249.639,0,0,1-50.986-2.084c-.065-2.609-.142-5.6-.248-8.86-.378-11.83-1.033-27.2-1.954-40.909-.6-8.861-1.31-17.019-2.137-23.082-.16-1.169-.319-2.361-.461-3.56l-9.976,6.978c-10.626-7.473-11.906-20.992-11.906-20.992A157.59,157.59,0,0,1,798.1,1990.67l.035-.018c18.164-10.3,30.154-11.766,30.85-11.842a.109.109,0,0,1,.029-.006v.006c.059-.024.118-.053.177-.077,3.583-1.44,7.161-2.869,10.75-4.315,4.15,2.113,8.8,4.22,13.424,6.322,1.021.466,2.049.933,3.07,1.393,1.694.774,4.392,2.073,6.671,3.177a17.919,17.919,0,0,1,7.332,6.523v.006l11.405,17.521s-3.129,12.183-14.428,17.928c.56,10.2,1.558,21.907,3.252,34.557.154,1.128.313,2.267.473,3.406Q871.612,2068.536,872.152,2071.9Z" transform="translate(-748.612 -1906.6)" fill="#f2e7ea"/>
          <path id="Path_5842" data-name="Path 5842" d="M840.159,1926.394q2.4,7.07,4.8,14.139c1.118,3.289,2.414,6.819,5.314,8.734a8.108,8.108,0,0,0,9-.2,31.2,31.2,0,0,1-9.374-12.685c-.924-2.345-1.584-4.835-3-6.922A7.263,7.263,0,0,0,840.159,1926.394Z" transform="translate(-769.232 -1889.374)" fill="url(#linear-gradient-20)"/>
          <path id="Path_5843" data-name="Path 5843" d="M874.884,1970.331a50.771,50.771,0,0,1-21.523.7,30.045,30.045,0,0,0,2.031-11.486c0-.056,0-.113,0-.163a30.575,30.575,0,0,0-.537-5.008,30.049,30.049,0,0,0-1.547-5.407,30.8,30.8,0,0,0-2.6-5.161,28.371,28.371,0,0,1,4.065-.1c7.029.307,14.057,3.1,17.512,8.285a40.115,40.115,0,0,0-.149,4.914c.022.724.063,1.439.129,2.154q.111,1.4.334,2.789c.047.324.1.655.159.979.131.747.287,1.494.468,2.232A39.888,39.888,0,0,0,874.884,1970.331Z" transform="translate(-773.013 -1895.586)" fill="#f68895"/>
          <path id="Path_5844" data-name="Path 5844" d="M873.857,1961.856c.047.325.1.655.159.979-15.682.571-19.807-18.263-19.807-18.263l1.822-.857c7.029.307,14.058,3.1,17.512,8.285a40.062,40.062,0,0,0-.15,4.913c.023.723.063,1.439.129,2.153C873.6,1960,873.708,1960.932,873.857,1961.856Z" transform="translate(-774.265 -1895.603)" fill="#f17785"/>
          <path id="Path_5845" data-name="Path 5845" d="M883.592,1906a17.609,17.609,0,0,1-.293,14.6c-.77-3.473-1.547-6.8-2.317-10.277-.357-1.609-.644-3.506.469-4.722a1.525,1.525,0,0,1,1.334-.558C883.281,1905.139,883.821,1905.556,883.592,1906Z" transform="translate(-783.74 -1881.747)" fill="#371a4f"/>
          <path id="Path_5846" data-name="Path 5846" d="M870.24,1904.164a32.706,32.706,0,0,0,4.6,20.118c2.069,3.386,4.869,6.729,4.774,10.7-.125,5.224-5.724,9.1-10.942,8.805s-9.78-3.734-13.089-7.779a35.987,35.987,0,0,1-7.761-26.823A39.726,39.726,0,0,1,870.24,1904.164Z" transform="translate(-771.886 -1881.388)" fill="#f68895"/>
          <path id="Path_5847" data-name="Path 5847" d="M882.509,1945.71a10.776,10.776,0,0,0,4.24-1.407.463.463,0,0,1,.695.341,2.858,2.858,0,0,1-.628,2.273,3.346,3.346,0,0,1-2.938,1.113c-.86-.118-1.339-.858-1.731-1.653A.464.464,0,0,1,882.509,1945.71Z" transform="translate(-784.254 -1895.79)" fill="#f9dee4"/>
          <path id="Path_5848" data-name="Path 5848" d="M844.584,1919.453a14.845,14.845,0,0,0,.322-15.142,43.583,43.583,0,0,0,15.753-1.366c2.94-.8,5.952-2.024,7.8-4.45a8.3,8.3,0,0,0-2.1-11.989,6.168,6.168,0,0,0-6.5-.365c-1.729,1.1-2.545,3.173-3.9,4.714-2.43,2.76-6.325,3.587-9.936,4.283s-7.507,1.583-9.864,4.406a9.432,9.432,0,0,0-1.882,7.516,13.1,13.1,0,0,0,3.714,6.934C839.868,1915.908,842.011,1918.671,844.584,1919.453Z" transform="translate(-767.073 -1874.706)" fill="url(#linear-gradient-21)"/>
          <path id="Path_5849" data-name="Path 5849" d="M751.93,2036.422a33.516,33.516,0,0,1,7.468-2,34.554,34.554,0,0,1,21.6,3.974q1.045-.877,2.066-1.738c-8.571-6.327-10.824-16.594-11.326-19.727q-1.139.859-2.3,1.78c-1.639,1.335-3.286,2.755-4.933,4.24-1.617,1.519-3.294,3.041-4.882,4.725A105.686,105.686,0,0,0,751.93,2036.422Z" transform="translate(-737.63 -1921.828)" fill="#f17785"/>
          <path id="Path_5850" data-name="Path 5850" d="M813.2,2077.274v.01c-.056,11.652-.284,23.908-.749,36.49a137.424,137.424,0,0,1-25.625-4.708c.065-26.746-.916-56.394-3.86-86.541,0,0-11.354,2.6-25.63,19.467l24.607,17.2-1.461,7.68s-33.444-4.205-49.133-18.537a5.19,5.19,0,0,1-1.1-6.256c5.772-11.006,26.6-45.794,64.251-57.515a85.553,85.553,0,0,1,15.531-3.3S813.476,2022.638,813.2,2077.274Z" transform="translate(-729.65 -1909.051)" fill="#371a4f"/>
          <path id="Path_5851" data-name="Path 5851" d="M809.149,2108.31c.419.032.83.057,1.224.07a2.191,2.191,0,0,0,.623.368,9.213,9.213,0,0,0,3.046.173c.143,0,.29.012.433.03a7.618,7.618,0,0,1,5.948,4.923c.472,1.16.917,2.639,1.977,2.813.8.134,1.51-.615,2.063-1.333a16.122,16.122,0,0,0,2.946-5.429,8.555,8.555,0,0,0-.488-6.282,7.159,7.159,0,0,0-3.652-2.989,12.07,12.07,0,0,0-9.18.026,12.8,12.8,0,0,0-2.7,1.471c-.311-.168-.636-.337-.974-.515Z" transform="translate(-758.125 -1951.495)" fill="#f68895"/>
          <path id="Path_5852" data-name="Path 5852" d="M842.314,1995.05l-9.418,7.575s2.613,29.713,16.5,74.65c.273-54.637-3.175-96.014-3.175-96.014a85.414,85.414,0,0,0-15.532,3.3Z" transform="translate(-765.839 -1909.052)" fill="#462261"/>
          <path id="Path_5853" data-name="Path 5853" d="M991.209,2018.242,933.936,2053.1a14.5,14.5,0,0,1-20.653-6.21l-7.214-15.313c6.7,18.978,10.633,47.948,12.926,77.633a135.967,135.967,0,0,1-13.289,3.01c-.725-12.587-1.684-24.546-2.782-35.755v-.014c-5.624-57.52-14.852-95.192-14.852-95.192l13.033,4.982A26.762,26.762,0,0,1,914.814,1998l14.583,32.983,52.728-23.234Z" transform="translate(-786.394 -1909.051)" fill="#371a4f"/>
          <path id="Path_5854" data-name="Path 5854" d="M888.076,1980.588s9.228,38.1,14.848,95.624c0,0,0,0,0,.009,2.968-30.639-.372-78.38-.372-78.38l-7.965-6.706,6.516-5.136Z" transform="translate(-786.396 -1908.81)" fill="#462261"/>
          <path id="Path_5855" data-name="Path 5855" d="M1041.41,1966.264c10.77-8.855,49.494-38.727,66.588-51.618s32.727-24.416,44.079-32.724c5.678-4.151,10.291-7.494,13.51-9.775s5.046-3.5,5.164-3.387-1.477,1.546-4.446,4.063-7.311,6.114-12.7,10.539c-10.78,8.847-25.72,21.022-42.4,34.308s-55.428,43.131-66.789,51.43-18.763,13.079-19.416,12.464S1030.631,1975.11,1041.41,1966.264Z" transform="translate(-835.425 -1868.753)" fill="#311649"/>
          <path id="Path_5856" data-name="Path 5856" d="M1052.653,2029.448c2.3-1.492,3.963-4.331,3.221-6.97a7.15,7.15,0,0,0-2.922-3.714,6.435,6.435,0,0,0-5.3-1.334,5.241,5.241,0,0,0-2.943,2.388,10.032,10.032,0,0,0-1.219,3.658c-.292,1.836-.991,6.9,1.078,7.967S1050.962,2030.546,1052.653,2029.448Z" transform="translate(-841.938 -1921.948)" fill="#f68895"/>
          <path id="Path_5857" data-name="Path 5857" d="M872.533,1989.42l3.433,7.719-1.891,78.581,8.624,8.675,5.858-10.319-9.831-76.937,2.05-7.719-4.81-2.321Z" transform="translate(-780.828 -1911.142)" fill="#462261"/>
          <path id="Path_5858" data-name="Path 5858" d="M852.274,1973.525s3.255,8.283,15.194,8.712l-4.24,10.041a25.378,25.378,0,0,1-14.422-13.059Z" transform="translate(-772.33 -1906.281)" fill="#fff"/>
          <path id="Path_5859" data-name="Path 5859" d="M877.883,1983.475s4.756-1.694,5.081-6.493l4.147,3.429s.6,9.545-2.495,12.276Z" transform="translate(-782.745 -1907.519)" fill="#fff"/>
          <g id="Group_7521" data-name="Group 7521" transform="translate(66.501 10.306)">
            <path id="Path_5860" data-name="Path 5860" d="M868.925,1889.625c-.121.052-.408-.718-1.36-1.728a6.776,6.776,0,0,0-2.008-1.443,5.989,5.989,0,0,0-3.131-.541,6.09,6.09,0,0,0-3.476,1.474,28.308,28.308,0,0,0-2.967,3.672,10.915,10.915,0,0,1-.93,1.024c-.174.162-.363.309-.545.465a4.638,4.638,0,0,1-.574.438l-.61.4c-.208.127-.429.227-.645.342a13.183,13.183,0,0,1-1.347.584,34.683,34.683,0,0,1-5.727,1.289,22.922,22.922,0,0,0-5.357,1.4,9.466,9.466,0,0,0-3.82,3.082,9.882,9.882,0,0,0-1.784,4.12,9.2,9.2,0,0,0,.138,3.929,10.755,10.755,0,0,0,2.893,5.012c1,.987,1.707,1.383,1.643,1.5-.033.075-.847-.138-2.039-1.041a10.377,10.377,0,0,1-3.555-5.171,10.034,10.034,0,0,1-.352-4.43,10.934,10.934,0,0,1,1.893-4.75,10.746,10.746,0,0,1,4.355-3.635,23.271,23.271,0,0,1,5.721-1.548,35.88,35.88,0,0,0,5.483-1.192,8.884,8.884,0,0,0,4.059-2.73,26.288,26.288,0,0,1,3.238-3.744,7.118,7.118,0,0,1,4.238-1.585,6.713,6.713,0,0,1,5.67,2.691,5.49,5.49,0,0,1,.811,1.519C868.96,1889.4,868.97,1889.609,868.925,1889.625Z" transform="translate(-833.264 -1884.81)" fill="#fff"/>
          </g>
          <g id="Group_7522" data-name="Group 7522" transform="translate(1.53 72.869)">
            <path id="Path_5861" data-name="Path 5861" d="M732.044,2040.69a18.548,18.548,0,0,1,1.662-3.511l.977-1.836,1.254-2.133,1.455-2.446c.534-.854,1.126-1.739,1.736-2.677,1.193-1.894,2.647-3.869,4.181-6.009,1.6-2.089,3.309-4.329,5.261-6.561A113.655,113.655,0,0,1,762.3,2001.99a100.546,100.546,0,0,1,15.992-10.775c2.615-1.406,5.17-2.607,7.6-3.644,2.441-1,4.737-1.884,6.882-2.548,2.137-.682,4.1-1.216,5.836-1.6,1.735-.4,3.248-.666,4.489-.841a12.393,12.393,0,0,1,3.888-.222,37.9,37.9,0,0,1-3.781.817c-1.212.265-2.689.61-4.384,1.088-1.7.462-3.61,1.064-5.7,1.8-2.093.721-4.336,1.648-6.719,2.688-2.37,1.073-4.867,2.3-7.424,3.719a106.461,106.461,0,0,0-15.691,10.718,121.711,121.711,0,0,0-13.635,13.268c-1.958,2.179-3.685,4.367-5.316,6.4-1.564,2.087-3.056,4.007-4.3,5.848-.634.911-1.252,1.769-1.815,2.6l-1.546,2.367-1.356,2.054-1.09,1.76A18.712,18.712,0,0,1,732.044,2040.69Z" transform="translate(-732.034 -1982.288)" fill="#fff"/>
          </g>
          <path id="Path_5862" data-name="Path 5862" d="M850.3,1929.549v.01l0,.054.057.073a.242.242,0,0,0,.113.043.218.218,0,0,0,.1-.015.473.473,0,0,0,.13-.058c.109-.064.265-.17.472-.321.126-.092.271-.195.431-.307.248-.171.539-.353.858-.532,0,0,0,0,0,0,.084-.052.166-.1.248-.143.1-.051.2-.1.3-.152a12,12,0,0,1,1.142-.494c.1-.034.188-.067.287-.1h0l.04-.014a12.063,12.063,0,0,1,1.189-.315,11.6,11.6,0,0,1,1.283-.189l.251-.023a4.39,4.39,0,0,0,1.8,2.313,4.012,4.012,0,0,0,2.9.642,3.82,3.82,0,0,0,.619-.153,3.7,3.7,0,0,0,.8-.353,3.6,3.6,0,0,0,1.113-1.041,3.883,3.883,0,0,0,.628-2.939,3.836,3.836,0,0,0-.565-1.441,3.721,3.721,0,0,0-.53-.666,2.374,2.374,0,0,1,.681-.347.8.8,0,0,0,.084-.028,4.172,4.172,0,0,1,1.031-.117,3.731,3.731,0,0,0,.1,1.086,4.422,4.422,0,0,0,1.72,2.473,4.059,4.059,0,0,0,2.869.763,4.7,4.7,0,0,0,.8-.179,3.743,3.743,0,0,0,.641-.273,3.625,3.625,0,0,0,1.158-.986.452.452,0,0,1,.041-.06,3.879,3.879,0,0,0,.705-2.857,3.981,3.981,0,0,0-.506-1.459,3.6,3.6,0,0,0-1.042-1.171,3.112,3.112,0,0,0-.456-.282l0,0a3.664,3.664,0,0,0-.971-.36,3.5,3.5,0,0,0-.51-.085,4.2,4.2,0,0,0-1.766.178,4.056,4.056,0,0,0-.708.3h0a4.436,4.436,0,0,0-1.264.99,3.148,3.148,0,0,0-.626,1.07,3.253,3.253,0,0,0-1.461.051c-.037.011-.07.022-.106.029a2.625,2.625,0,0,0-1.11.714,4.019,4.019,0,0,0-1.31-.5,4.763,4.763,0,0,0-1.56,0,5.432,5.432,0,0,0-.535.137,4.5,4.5,0,0,0-2.1,1.432,3.171,3.171,0,0,0-.667,1.461,3.054,3.054,0,0,0-.036.924l-.105-.011a8.035,8.035,0,0,0-1.427.061c-.286.044-.571.1-.848.167h0c-.193.045-.383.1-.57.158-.091.031-.184.064-.272.095a9.054,9.054,0,0,0-1.574.765,7.653,7.653,0,0,0-1.132.868,3.854,3.854,0,0,0-.777.953v0A.37.37,0,0,0,850.3,1929.549Zm16.369-6.709c.01-.063.026-.123.039-.181s.031-.1.051-.159a2.482,2.482,0,0,1,.506-.865,1.989,1.989,0,0,1,.206-.211,1.516,1.516,0,0,1,.239-.194l.089-.07a1.262,1.262,0,0,1,.164-.112l.279-.161.015-.009a3.447,3.447,0,0,1,.576-.233,2.949,2.949,0,0,1,.564-.135,3.532,3.532,0,0,1,1.216.036c.021.006.035.007.056.013h0a3.169,3.169,0,0,1,.905.379l0,0a1.278,1.278,0,0,1,.137.085,2.647,2.647,0,0,1,.827.865,3.222,3.222,0,0,1,.444,1.141,3.171,3.171,0,0,1-.293,2.012v0a2.252,2.252,0,0,1-.212.356,3,3,0,0,1-1.534,1.127,2.809,2.809,0,0,1-.57.124,3.619,3.619,0,0,1-3.687-2.822A2.584,2.584,0,0,1,866.664,1922.84Zm-8.7,2.743a2.54,2.54,0,0,1,.513-1.049l.048-.055a2.153,2.153,0,0,1,.151-.163,1.8,1.8,0,0,1,.221-.2l.089-.069a1.711,1.711,0,0,1,.162-.127l.265-.17a4.119,4.119,0,0,1,.738-.319,2.932,2.932,0,0,1,.4-.1,3.491,3.491,0,0,1,1.221-.017,3.2,3.2,0,0,1,1.12.431,2.087,2.087,0,0,1,.327.227,3.023,3.023,0,0,1,.535.6,3.189,3.189,0,0,1,.088,3.516,3.032,3.032,0,0,1-1.6,1.228,2.6,2.6,0,0,1-.447.106,3.634,3.634,0,0,1-3.786-2.6l-.019-.062c-.012-.057-.027-.123-.039-.189A2.385,2.385,0,0,1,857.966,1925.583Z" transform="translate(-772.863 -1886.938)" fill="#311649"/>
          <path id="Path_5863" data-name="Path 5863" d="M848.3,1932.817a2.144,2.144,0,0,0-1.964-2.007,2.787,2.787,0,0,0-2.543,1.442,4.029,4.029,0,0,0-.3,2.995,7.426,7.426,0,0,0,1.456,2.7,6.992,6.992,0,0,0,3.663,2.6,3.691,3.691,0,0,0,4.013-1.465C850.667,1937.258,848.3,1935.492,848.3,1932.817Z" transform="translate(-770.372 -1890.978)" fill="#f68895"/>
        </g>
        <g id="Group_7525" data-name="Group 7525" transform="translate(341.338 213.806)">
          <path id="Path_5864" data-name="Path 5864" d="M1318.933,2165.973c-.367,27.255-4.1,70.458-7.071,99.1l-.322.034-.661.169-3.662.175-1.179.115-7.494-114.716c.158,0,.316,0,.474,0,5.185,0,14.922-.472,19.85-1.386.03.929.051,1.919.073,2.971C1319.005,2156.24,1319,2160.822,1318.933,2165.973Z" transform="translate(-1290.353 -2059.909)" fill="#f17785"/>
          <path id="Path_5865" data-name="Path 5865" d="M1347.208,2172.993c-.367,26.624-3.142,68.827-6.113,96.8l-.322.033-2.258.166-2.066.171-1.179.112-8.452-112.06c.158,0,.316,0,.474,0,5.185,0,14.922-.462,19.849-1.354.03.908.051,1.874.073,2.9C1347.28,2163.486,1347.275,2167.962,1347.208,2172.993Z" transform="translate(-1308.363 -2064.625)" fill="#f68895"/>
          <path id="Path_5866" data-name="Path 5866" d="M1297.116,2132.967s-.322,46.957,1.82,70.374a58.594,58.594,0,0,0,29.651,2.129s1.156-46.844-.289-72.329C1328.3,2133.14,1314.745,2123.818,1297.116,2132.967Z" transform="translate(-1289.432 -2046.841)" fill="#36194f"/>
          <path id="Path_5867" data-name="Path 5867" d="M1300.805,2034.873a16.534,16.534,0,0,0-6.06,5.507,20.963,20.963,0,0,0,2.054,9.3C1299.488,2045.049,1301.628,2040.161,1300.805,2034.873Z" transform="translate(-1287.933 -1986.922)" fill="#cec0c4"/>
          <path id="Path_5868" data-name="Path 5868" d="M1293.864,1981.761a3.242,3.242,0,0,1-.354-3.271,5.332,5.332,0,0,1,2.351-2.451,15.848,15.848,0,0,1,3.217-1.249,4.512,4.512,0,0,1,1.952-.295,1.544,1.544,0,0,1,1.37,1.238,1.982,1.982,0,0,1-1,1.631,4.361,4.361,0,0,0-1.472,1.331c-.364.7-.19,1.579-.5,2.3-.495,1.149-1.939,1.474-3.178,1.651C1295.474,1982.287,1294.406,1982.417,1293.864,1981.761Z" transform="translate(-1286.968 -1948.448)" fill="#f68895"/>
          <path id="Path_5869" data-name="Path 5869" d="M1297.056,2102.083q1.333.44,2.717.805a49.622,49.622,0,0,0,6.522,1.265c-.49-8.194-1.364-14.283-2.637-23.7-1.4.749-2.819,1.3-4.235,1.9-.809.347-1.615.709-2.418,1.139A171.779,171.779,0,0,1,1297.056,2102.083Z" transform="translate(-1289.373 -2015.956)" fill="#cec0c4"/>
          <path id="Path_5870" data-name="Path 5870" d="M1332,1965.508a13.206,13.206,0,0,1-9.242,2.015,15.589,15.589,0,0,0-1.7-8.705,11.768,11.768,0,0,1,7.447-4.369,28.984,28.984,0,0,0,2.22,8.408Q1331.305,1964.207,1332,1965.508Z" transform="translate(-1304.694 -1935.697)" fill="#f68895"/>
          <path id="Path_5871" data-name="Path 5871" d="M1330.728,1962.857a16.381,16.381,0,0,0-8.27-.2,15.317,15.317,0,0,0-1.4-3.836,11.768,11.768,0,0,1,7.447-4.369A28.984,28.984,0,0,0,1330.728,1962.857Z" transform="translate(-1304.694 -1935.697)" fill="#f17785"/>
          <path id="Path_5872" data-name="Path 5872" d="M1312.546,1939.881a9.365,9.365,0,0,1-1.667.869,4.83,4.83,0,0,1-4.68-.2,4.988,4.988,0,0,1-1.739-4.042,13.1,13.1,0,0,1,.106-2.088,34.5,34.5,0,0,1,4.35-12.957c2.9-1.386,8.509-2.592,9.61.433A15.725,15.725,0,0,1,1312.546,1939.881Z" transform="translate(-1294.117 -1913.764)" fill="#f68895"/>
          <path id="Path_5873" data-name="Path 5873" d="M1302.36,2011.57c.088,1.634.194,3.264.287,4.879.02.356.043.709.06,1.065v0c.017.268.031.535.046.8q.2,3.734.3,7.473c.04,1.421.071,2.675.088,3.822.052,3.2.023,5.573-.085,8.43a49.53,49.53,0,0,0,6.522,1.265,52.639,52.639,0,0,0,6.624.416,50.849,50.849,0,0,0,15.32-2.313c-.874-19.241-2.3-31.311-3.859-39.369a66.24,66.24,0,0,0-4.07-13.992,19.881,19.881,0,0,0-1.122-2.287,6.567,6.567,0,0,0-1.811-2.2h0c-.234-.1-.467-.2-.7-.287a7.078,7.078,0,0,0-6.727.45l-.011.009a24.044,24.044,0,0,0-2.433,1.928,24.407,24.407,0,0,0-2.688,2.865,23.947,23.947,0,0,0-2.472,3.768C1301.913,1995.324,1301.919,2003.524,1302.36,2011.57Z" transform="translate(-1292.657 -1951.113)" fill="#f2e7ea"/>
          <path id="Path_5874" data-name="Path 5874" d="M1304.177,2060.529c-.017-1.148-.047-2.4-.086-3.823q-.1-3.74-.3-7.472L1321,2027.188l1.053,1.947S1322.244,2046.782,1304.177,2060.529Z" transform="translate(-1293.692 -1982.027)" fill="#cec0c4"/>
          <path id="Path_5875" data-name="Path 5875" d="M1307.724,1997.26a22.719,22.719,0,0,1-.145,2.711c-.053.476-.1.97-.184,1.468s-.175,1.009-.278,1.53c-.192,1.047-.49,2.123-.805,3.24-.081.279-.159.563-.248.844s-.195.563-.293.847c-.195.571-.4,1.153-.616,1.741a53.6,53.6,0,0,1-3.468,7.2,57.1,57.1,0,0,1-4.979,7.3c-.462.61-.972,1.2-1.482,1.786-.256.3-.513.588-.769.886s-.538.577-.805.867-.543.577-.816.869-.543.579-.839.855l-1.746,1.671-.56.535a4.672,4.672,0,0,1-3.256,1.318,4.732,4.732,0,0,1-4.63-3.641l-.073-.3q-.293-1.2-.58-2.382c-.17-.791-.3-1.582-.448-2.363s-.246-1.563-.351-2.335c-.05-.384-.1-.769-.153-1.151s-.069-.766-.1-1.145a60.031,60.031,0,0,1-.17-8.726,62.248,62.248,0,0,1,.9-7.764c.111-.6.248-1.187.371-1.761s.225-1.139.385-1.683.3-1.078.437-1.6c.073-.262.137-.521.212-.772s.164-.5.245-.747c.331-.978.621-1.911.986-2.766l.51-1.248c.086-.2.161-.4.25-.591s.184-.379.273-.562l.376-.761a8.539,8.539,0,0,1,3.522,1.454c-.042.195-.086.4-.131.6-.189.724-.3,1.53-.463,2.357s-.276,1.725-.415,2.649c-.036.232-.07.465-.106.7s-.047.479-.072.724c-.045.485-.095.984-.142,1.49-.064.5-.067,1.028-.1,1.555s-.056,1.064-.072,1.61c0,.546,0,1.1,0,1.666,0,.281,0,.566,0,.853.017.284.03.574.044.864.028.577.056,1.164.086,1.758.059.594.12,1.192.181,1.8s.145,1.214.234,1.83c.047.306.092.616.139.925l.07.468.094.465q.184.923.374,1.864c.986-1.747,1.855-3.491,2.652-5.179q.372-.79.733-1.566.33-.79.666-1.546c.234-.5.435-1.008.638-1.507s.407-.981.607-1.463c.764-1.936,1.477-3.745,2.126-5.394q.246-.622.5-1.212c.17-.393.309-.783.471-1.156.317-.75.657-1.454.953-2.12s.649-1.279.961-1.853a13.978,13.978,0,0,1,.978-1.56,13.718,13.718,0,0,1,1.017-1.245,6.215,6.215,0,0,1,1.064-.9,3.433,3.433,0,0,1,2.22-.635,3.1,3.1,0,0,1,2.02,1.1,5.735,5.735,0,0,1,.816,1.206,7.958,7.958,0,0,1,.632,1.622,15.452,15.452,0,0,1,.412,2.017c.059.37.075.749.1,1.145S1307.718,1996.833,1307.724,1997.26Z" transform="translate(-1278.442 -1957.654)" fill="#f2e7ea"/>
          <path id="Path_5876" data-name="Path 5876" d="M1322.536,1920.114a1.339,1.339,0,0,1,1.621-1.11,1.739,1.739,0,0,1,1.233,1.672,2.513,2.513,0,0,1-1,1.919,4.657,4.657,0,0,1-2.044.858,9.648,9.648,0,0,1,.381,7.024c-.658,2.349-1.672,4.613-2,7.03a12.22,12.22,0,0,0,5.224,11.65,11.147,11.147,0,0,0,12.614-.448,10.254,10.254,0,0,0,2.927-12.115c-1.042-2.155-2.84-3.827-4.431-5.616s-3.062-3.888-3.188-6.278c-.241-4.574,4.451-8.426,3.889-12.972a7.226,7.226,0,0,0-2.476-4.413,12.726,12.726,0,0,0-4.522-2.434,13.892,13.892,0,0,0-9.261-.1,8.448,8.448,0,0,0-5.528,7.023A44.99,44.99,0,0,0,1322.536,1920.114Z" transform="translate(-1301.459 -1903.582)" fill="url(#linear-gradient-22)"/>
          <path id="Path_5877" data-name="Path 5877" d="M1331.64,1955.025a1,1,0,1,0,1.295-.579A1,1,0,0,0,1331.64,1955.025Z" transform="translate(-1311.39 -1935.652)" fill="#fff"/>
          <path id="Path_5878" data-name="Path 5878" d="M1277.345,2061.908a6.114,6.114,0,1,0,2.965,4.422C1280.143,2064.419,1278.83,2063.122,1277.345,2061.908Z" transform="translate(-1275.982 -2004.142)" fill="#f68895"/>
          <path id="Path_5879" data-name="Path 5879" d="M1307.685,2465.742A43.949,43.949,0,0,1,1289,2466c.386-1.906,2.04-3.3,3.758-4.208.214-.115.431-.224.648-.329a26.494,26.494,0,0,0,4.521-2.356c1.555-1.169,2.743-3.142,2.229-5.017,2.222.022,3.6-1.884,5.719-1.226.188.491.367,1.031.54,1.6A30.292,30.292,0,0,1,1307.685,2465.742Z" transform="translate(-1284.272 -2253.073)" fill="#36194f"/>
          <path id="Path_5880" data-name="Path 5880" d="M1338.334,2465.742a43.936,43.936,0,0,1-18.684.262c.383-1.906,2.04-3.3,3.755-4.208l.322-.169a31.1,31.1,0,0,0,4.848-2.517c1.555-1.169,2.743-3.142,2.229-5.017,2.223.022,3.6-1.884,5.719-1.226.194.511.38,1.07.555,1.664A30.26,30.26,0,0,1,1338.334,2465.742Z" transform="translate(-1303.796 -2253.073)" fill="#371a4f"/>
          <path id="Path_5881" data-name="Path 5881" d="M1314.145,2454.47a9.515,9.515,0,0,1-1.61,2.832,12.16,12.16,0,0,1-6.166,4.324,8.729,8.729,0,0,1-5.233-.16,26.509,26.509,0,0,0,4.522-2.356c1.555-1.169,2.743-3.142,2.229-5.017,2.223.022,3.6-1.884,5.719-1.226C1313.794,2453.359,1313.973,2453.9,1314.145,2454.47Z" transform="translate(-1292.004 -2253.073)" fill="#f17785"/>
          <path id="Path_5882" data-name="Path 5882" d="M1344.232,2454.531a10.972,10.972,0,0,1-1.5,2.449,13.12,13.12,0,0,1-6.658,4.668,9.491,9.491,0,0,1-5.189-.022,31.1,31.1,0,0,0,4.848-2.517c1.555-1.169,2.743-3.142,2.229-5.017,2.223.022,3.6-1.884,5.719-1.226C1343.871,2453.378,1344.056,2453.937,1344.232,2454.531Z" transform="translate(-1310.949 -2253.073)" fill="#f68895"/>
          <g id="Group_7524" data-name="Group 7524" transform="translate(9.962)">
            <path id="Path_5883" data-name="Path 5883" d="M1329.754,1911.954c-.034,0-.051-.17-.1-.484a7.053,7.053,0,0,0-.312-1.336,7.334,7.334,0,0,0-.982-1.91,8.514,8.514,0,0,0-2.014-1.99,12.859,12.859,0,0,0-3.075-1.582,16.857,16.857,0,0,0-3.875-.929,13.157,13.157,0,0,0-4.35.2,9.489,9.489,0,0,0-2.147.743,6.384,6.384,0,0,0-1.8,1.415,17.607,17.607,0,0,0-2.453,4.023c-.346.7-.7,1.4-1.022,2.066s-.663,1.324-.932,1.985a35.235,35.235,0,0,0-2.386,7.166,21.453,21.453,0,0,0-.4,2.869,14.964,14.964,0,0,0,.033,2.182c.1,1.2.367,1.82.31,1.846a3.489,3.489,0,0,1-.649-1.8,12.709,12.709,0,0,1-.186-2.246,19.557,19.557,0,0,1,.277-2.964,32.852,32.852,0,0,1,2.254-7.377c.265-.677.6-1.341.92-2.03s.663-1.373,1-2.078a17.9,17.9,0,0,1,2.575-4.234,7.191,7.191,0,0,1,2.052-1.6,10.134,10.134,0,0,1,2.361-.807,13.69,13.69,0,0,1,4.634-.166,16.984,16.984,0,0,1,4.037,1.051,12.967,12.967,0,0,1,3.187,1.766,8.625,8.625,0,0,1,2.051,2.214,7.021,7.021,0,0,1,.9,2.088,5.125,5.125,0,0,1,.161,1.422C1329.823,1911.787,1329.781,1911.955,1329.754,1911.954Z" transform="translate(-1303.42 -1902.797)" fill="#fff"/>
          </g>
        </g>
        <g id="Group_7542" data-name="Group 7542" transform="translate(405.904 122.245)">
          <g id="Group_5276" data-name="Group 5276" transform="translate(237.518 296.423)">
            <g id="Group_5273" data-name="Group 5273" transform="translate(0 2.731)">
              <g id="Group_5272" data-name="Group 5272">
                <path id="Path_6171" data-name="Path 6171" d="M164.089,467.474c4.279-.951-.857-5.849-4.364-6.424.955.471,2.119,1.148.638,1.5-2.169.509-5.168-1.418-6.6-2.664a6.535,6.535,0,0,0-.593,3.131C153.205,464.163,160.9,468.181,164.089,467.474Z" transform="translate(-153.161 -459.881)" fill="#30193b"/>
              </g>
            </g>
            <g id="Group_5275" data-name="Group 5275" transform="translate(0.598)">
              <g id="Group_5274" data-name="Group 5274">
                <path id="Path_6172" data-name="Path 6172" d="M164.05,463.267c1.519-.228.663-1.79-.414-2.409-3.659-2.1-3.471-3.531-3.471-3.531l-1.83-.025s-.656,2.458-.806,2.731C158.492,461.412,160.824,463.75,164.05,463.267Z" transform="translate(-157.53 -457.301)" fill="#ff97a6"/>
              </g>
            </g>
          </g>
          <g id="Group_5281" data-name="Group 5281" transform="translate(187.351 297.401)">
            <g id="Group_5278" data-name="Group 5278" transform="translate(0 3.081)">
              <g id="Group_5277" data-name="Group 5277">
                <path id="Path_6173" data-name="Path 6173" d="M197.1,465.842c-.614-4.357,5.1-3.958,8.38-4.706-.882.575-1.953,1.4-.549,1.778,2.054.557,6.535-.151,7.843-1.651a9.488,9.488,0,0,1,.66,3.686C213.433,466.308,197.26,466.994,197.1,465.842Z" transform="translate(-197.052 -461.136)" fill="#30193b"/>
              </g>
            </g>
            <g id="Group_5280" data-name="Group 5280" transform="translate(6.692)">
              <g id="Group_5279" data-name="Group 5279">
                <path id="Path_6174" data-name="Path 6174" d="M198.861,463.085c-1.4-.381-1.847-1.353.284-1.729a15.853,15.853,0,0,0,3.789-1.21c.893-.413,1.207-1.855,1.207-1.855l1.718-.067s.7,2.89.846,3.208C205.4,462.933,200.915,463.641,198.861,463.085Z" transform="translate(-197.677 -458.225)" fill="#ff97a6"/>
              </g>
            </g>
          </g>
          <g id="Group_5283" data-name="Group 5283" transform="translate(178.043 127.471)">
            <g id="Group_5282" data-name="Group 5282">
              <path id="Path_6175" data-name="Path 6175" d="M166.324,325.03c3.388-9.08,6.17-15.572,8.219-16.509,10.92-4.722,26.293-11.257,28.334-10.814,1.956,1.12,14.293,19.586,16.468,31.442,5.206,28.388,5.265,127.08,5.435,137.1a.916.916,0,0,1-.782.921l-2.912.437a.914.914,0,0,1-1.01-.63c-1.865-5.916-14.31-45.9-21.16-80.4-4.71-23.726-7.66-43.932-8.9-44.663C186.751,352.291,187.391,449,185.342,467.8c-.342,3.136-6.207.686-6.208-1.867,0-11.207-13.851-48.157-17.6-84.635C158.955,356.184,161.256,338.612,166.324,325.03Z" transform="translate(-160.47 -297.686)" fill="#3b2b5b"/>
            </g>
          </g>
          <g id="Group_5285" data-name="Group 5285" transform="translate(178.043 134.272)">
            <g id="Group_5284" data-name="Group 5284" transform="translate(0)">
              <path id="Path_6176" data-name="Path 6176" d="M204.548,324.654c3.388-9.08,6.17-15.572,8.219-16.509,2.885-1.248,6.081-2.622,9.259-3.96,4.239-1.786-14.527,28.926-15.933,68.644-.565,15.958,2.821,32.695,5.556,48.152,3.251,18.379,5.894,35.257,7.559,43.261a12.3,12.3,0,0,0,1.836,4.579c-2.638-.716-3.687-2.306-3.687-3.263,0-11.207-13.851-48.157-17.6-84.635C197.179,355.808,199.48,338.236,204.548,324.654Z" transform="translate(-198.694 -304.111)" fill="#30193b"/>
            </g>
          </g>
          <g id="Group_5287" data-name="Group 5287" transform="translate(141.053 100.141)">
            <g id="Group_5286" data-name="Group 5286" transform="translate(0)">
              <path id="Path_6177" data-name="Path 6177" d="M214.077,304.846c3.329-2.193,18.3-9.193,18.3-9.193s9.821-14.193,12.7-17.493a41.636,41.636,0,0,1,2.969-3c1.59-1.476,5.329-2.5,10.905-3.291-1.715,4.3-12.643,18.584-12.628,18a78.408,78.408,0,0,1-7.628,10.644,132.609,132.609,0,0,1-10.72,11.032c-5.19,4.895-16.911,1.85-16.911,1.85S210.749,307.039,214.077,304.846Z" transform="translate(-211.054 -271.867)" fill="#99b4dd"/>
            </g>
          </g>
          <g id="Group_5288" data-name="Group 5288" transform="translate(175.443 94.905)">
            <path id="Path_6178" data-name="Path 6178" d="M214.995,273.945a210.525,210.525,0,0,0,11.278,26.471s.845,2.659-10.106,9.156c-10.318,6.122-22.854,5.569-22.854,5.569a155.136,155.136,0,0,1-9.769-18.37c-4.863-10.928-3.728-18.5-2.01-20.383.695-.761,12.637-10.275,24.693-9.412A10.172,10.172,0,0,1,214.995,273.945Z" transform="translate(-180.06 -266.92)" fill="#aacbe8"/>
          </g>
          <g id="Group_5296" data-name="Group 5296" transform="translate(0)">
            <g id="Group_5290" data-name="Group 5290" transform="translate(99.96 91.047)">
              <g id="Group_5289" data-name="Group 5289" transform="translate(0 0)">
                <path id="Path_6192" data-name="Path 6192" d="M.014,10.829l24.542.031L24.542.031,0,0Z" transform="translate(19.111 23.871) rotate(-141.102)" fill="#aacbe8"/>
              </g>
            </g>
            <g id="Group_5291" data-name="Group 5291" transform="translate(0)">
              <path id="Path_6179" data-name="Path 6179" d="M336.339,188.189A49.3,49.3,0,1,0,367.182,199.1a48.994,48.994,0,0,0-30.843-10.914m0-10.929A59.732,59.732,0,0,1,374.027,190.6a60.255,60.255,0,0,1-37.8,107.146A59.731,59.731,0,0,1,298.534,284.4a60.254,60.254,0,0,1,37.8-107.144Z" transform="translate(-276.194 -177.26)" fill="#3b2b5b"/>
            </g>
            <g id="Group_5294" data-name="Group 5294" transform="translate(115.373 102)">
              <g id="Group_5292" data-name="Group 5292" transform="translate(0 0)">
                <path id="Path_6193" data-name="Path 6193" d="M0,63.722l22.217-.028L22.3,0,.08.028Z" transform="matrix(-0.628, 0.778, -0.778, -0.628, 63.593, 40.013)" fill="#ff5e4d"/>
              </g>
              <g id="Group_5293" data-name="Group 5293" transform="translate(3.756 3.032)">
                <path id="Path_6194" data-name="Path 6194" d="M0,54.08l22.217-.028L22.285,0,.068.028Z" transform="matrix(-0.628, 0.778, -0.778, -0.628, 56.082, 33.958)" fill="#3b2b5b"/>
              </g>
            </g>
            <g id="Group_5295" data-name="Group 5295" transform="translate(2.64 2.679)" opacity="0.69">
              <ellipse id="Ellipse_147" data-name="Ellipse 147" cx="52.043" cy="51.913" rx="52.043" ry="51.913" transform="translate(11.729 115.123) rotate(-96.47)" fill="#d5eaf5"/>
            </g>
          </g>
          <g id="Group_5298" data-name="Group 5298" transform="translate(138.855 136.123)">
            <g id="Group_5297" data-name="Group 5297" transform="translate(0)">
              <path id="Path_6180" data-name="Path 6180" d="M258.41,313.789c-.115.016-.215.087-.325.048-.937-.337-5.438-2.045-5.382-3.843.085-2.761,3.031-4.529,3.914-4.057.793.424-.3,1.983-.3,1.983s-.1-.343.722-.15.02,1.875.007,2.836C257.037,311.528,259.859,313.6,258.41,313.789Z" transform="translate(-252.702 -305.86)" fill="#ff97a6"/>
            </g>
          </g>
          <g id="Group_5301" data-name="Group 5301" transform="translate(154.232 143.043)">
            <g id="Group_5299" data-name="Group 5299" transform="translate(4.232)">
              <path id="Path_6181" data-name="Path 6181" d="M238.242,314.517s-.586-.457-1.13-.946c-.62-.558-1.186-1.157-.77-1.173a4.083,4.083,0,0,1,1.712.574c1.45.768,2.878,2.026,1.557,1.959A2.854,2.854,0,0,1,238.242,314.517Z" transform="translate(-236.2 -312.397)" fill="#ff97a6"/>
            </g>
            <g id="Group_5300" data-name="Group 5300" transform="translate(0 1.125)">
              <path id="Path_6182" data-name="Path 6182" d="M244.091,315.2a.873.873,0,0,0-.506-.541,20,20,0,0,0-3.712-1.19c-1.171-.119-4.494.939-4.739,1.542s1.419.437,1.419.437-1.817.093-1.9.91,2.73.829,2.73.829-.992.865-.408.973a23.412,23.412,0,0,0,3.015-.022,9.427,9.427,0,0,0,1.738-.239,16.359,16.359,0,0,0,2.724-1.328A6.818,6.818,0,0,0,244.091,315.2Z" transform="translate(-234.65 -313.46)" fill="#ff97a6"/>
            </g>
          </g>
          <g id="Group_5302" data-name="Group 5302" transform="translate(175.344 99.818)">
            <path id="Path_6183" data-name="Path 6183" d="M225.489,312.084a48.926,48.926,0,0,1-16.925,2.786s-4.973-8.307-9.769-18.37c-5.214-10.937-3.665-18.448-2.01-20.384,1.447-1.7,6.67-4.555,6.67-4.555s-2.238,12.812,2.726,22.555C211.707,304.96,226.537,311.7,225.489,312.084Z" transform="translate(-195.211 -271.561)" fill="#99b4dd"/>
          </g>
          <g id="Group_5303" data-name="Group 5303" transform="translate(162.672 95.291)">
            <path id="Path_6184" data-name="Path 6184" d="M226.012,267.756c.731-1.254,5.061.264,5.907,1.443,2.135,2.977,2.909,4.673,4.811,10.053,2.93,8.288,2.584,25.061-2.975,33.9-4.11,6.534-35.838,17.359-42.915,8.108-2.633-3.441-1.3-5.987-1.3-5.987l36.788-12.1-1.9-22.25S223.1,272.751,226.012,267.756Z" transform="translate(-189.203 -267.285)" fill="#aacbe8"/>
          </g>
          <g id="Group_5304" data-name="Group 5304" transform="translate(207.224 107.258)">
            <path id="Path_6185" data-name="Path 6185" d="M191.78,278.59a34.231,34.231,0,0,1,.855,4.261c.106.715.212,1.429.267,2.15.076.719.137,1.437.163,2.16a67.509,67.509,0,0,1-.087,8.647,56.362,56.362,0,0,1-1.247,8.548c-.162.7-.359,1.394-.536,2.094-.194.694-.447,1.369-.664,2.058s-.522,1.344-.78,2.022c-.3.657-.638,1.3-.946,1.96a25.883,25.883,0,0,0,3.6-7.96,43.429,43.429,0,0,0,1.476-8.654,49.376,49.376,0,0,0-.127-8.772A31.213,31.213,0,0,0,191.78,278.59Z" transform="translate(-188.805 -278.59)" fill="#b7d9ed"/>
          </g>
          <g id="Group_5305" data-name="Group 5305" transform="translate(191.318 95.762)">
            <path id="Path_6186" data-name="Path 6186" d="M200.481,305.939c1.439-.387,2.865-.811,4.3-1.221s2.851-.854,4.276-1.283l.221-.066-.017-.243c-.121-1.858-.219-3.716-.376-5.571l-.434-5.566c-.275-3.712-.668-7.414-1-11.121l0-.014,0-.016a31.849,31.849,0,0,1-.338-6.641,24.814,24.814,0,0,1,.433-3.309,14.831,14.831,0,0,1,1.1-3.159,15.254,15.254,0,0,0-2.032,6.424,29.974,29.974,0,0,0-.156,3.4,26.489,26.489,0,0,0,.225,3.409l0-.03c.3,3.71.544,7.424.9,11.129l.515,5.559c.159,1.854.378,3.7.572,5.554l.2-.309c-1.4.5-2.809.98-4.2,1.506S201.869,305.4,200.481,305.939Z" transform="translate(-200.481 -267.73)" fill="#b7d9ed"/>
          </g>
          <g id="Group_5308" data-name="Group 5308" transform="translate(181.623 94.922)">
            <g id="Group_5306" data-name="Group 5306" transform="translate(0)">
              <path id="Path_6187" data-name="Path 6187" d="M214.581,266.936s3.843,3.627,3.739,4.4-1.27,2.479-2.931,2.046-3.3-4.762-3.3-4.762Z" transform="translate(-212.086 -266.936)" fill="#ff97a6"/>
            </g>
            <g id="Group_5307" data-name="Group 5307" transform="translate(0.473 0.84)">
              <path id="Path_6188" data-name="Path 6188" d="M217.792,269.628a6.243,6.243,0,0,1-3.3,2.481,14.436,14.436,0,0,1-1.384-2.434l2.886-1.946C216.529,268.263,217.219,268.972,217.792,269.628Z" transform="translate(-213.107 -267.73)" fill="#c95d77"/>
            </g>
          </g>
          <g id="Group_5309" data-name="Group 5309" transform="translate(171.529 80.659)">
            <path id="Path_6189" data-name="Path 6189" d="M215.954,265.584s-3.519-3.1-3.748-6.847a9.714,9.714,0,0,1,1.221-5.142.257.257,0,0,1,.477.073c.245,1.083.9,3.124,2.327,3.061,1.945-.084,9.426-4.53,10.083,2.26,0,0,5.027.549-.487,9.376Z" transform="translate(-212.19 -253.461)" fill="#80540a"/>
          </g>
          <g id="Group_5310" data-name="Group 5310" transform="translate(174.571 88.416)">
            <path id="Path_6190" data-name="Path 6190" d="M216.4,269.987c-.487-.455-1.276-2.591-1.88-4.4a2.814,2.814,0,0,1,1.84-3.581c2.336-.722,4.963-1.381,5.812-1.182,1.33.31,1.925,1.848,2.392,2.982a8.857,8.857,0,0,1,.564,4.545,5.622,5.622,0,0,1-2.9,2.956C219.072,272.424,217.878,271.947,216.4,269.987Z" transform="translate(-214.374 -260.79)" fill="#ff97a6"/>
          </g>
          <g id="Group_5311" data-name="Group 5311" transform="translate(171.483 80.388)">
            <path id="Path_6191" data-name="Path 6191" d="M211.963,258.751a9.711,9.711,0,0,1,.44-2.767,9.979,9.979,0,0,1,.51-1.295c.1-.21.2-.417.307-.62l.168-.3c.05-.077.008-.008.017-.025,0,.026-.025-.044-.005.039l.078.357c.057.236.121.472.2.706a4.952,4.952,0,0,0,.66,1.361,2.053,2.053,0,0,0,1.392.914,4.368,4.368,0,0,0,1.543-.252,17.361,17.361,0,0,1,5.346-1.159,2.835,2.835,0,0,1,2.177.942,4.849,4.849,0,0,1,.872,2.391l.005.023a.423.423,0,0,0,.355.341,2.092,2.092,0,0,1,1.655,1.42,4.8,4.8,0,0,1-.022,2.537,10.451,10.451,0,0,1-.387,1.286,10.916,10.916,0,0,1-.492,1.265c-.344.845-.795,1.639-1.2,2.464a24.213,24.213,0,0,0,1.47-2.33,11.868,11.868,0,0,0,1.115-2.552,5.367,5.367,0,0,0,.172-2.875,2.746,2.746,0,0,0-.795-1.333,2.843,2.843,0,0,0-1.431-.691l.359.365a9.222,9.222,0,0,0-.288-1.478l-.267-.728-.446-.668a3.731,3.731,0,0,0-2.813-1.289,16.516,16.516,0,0,0-5.628,1.282,3.92,3.92,0,0,1-1.218.265,1.371,1.371,0,0,1-.92-.568,4.339,4.339,0,0,1-.637-1.145c-.084-.21-.157-.426-.224-.645l-.093-.331a.556.556,0,0,0-.454-.442.532.532,0,0,0-.548.307l-.158.327c-.1.22-.2.441-.28.668a10.332,10.332,0,0,0-.4,1.388A8.5,8.5,0,0,0,211.963,258.751Z" transform="translate(-211.902 -253.206)" fill="#ad7121"/>
          </g>
        </g>
      </g>
    </g>
    <g id="Group_7541" data-name="Group 7541" transform="translate(-200.953 -135.697)">
      <g id="Group_7552" data-name="Group 7552" transform="translate(-81 22)">
        <circle id="Ellipse_114" data-name="Ellipse 114" cx="58.306" cy="58.306" r="58.306" transform="translate(889.161 413.744)" fill="url(#linear-gradient-23)"/>
        <g id="Group_7535" data-name="Group 7535" transform="translate(914.781 440.121)">
          <path id="Path_5933" data-name="Path 5933" d="M2219.385,542.713l-1.555-2.284a12.986,12.986,0,0,0,2.1-4.157l2.763-.1a.983.983,0,0,0,.918-.965l.216-2.847a.984.984,0,0,0-.761-1.093l-2.717-.515a12.989,12.989,0,0,0-1.451-4.427l1.883-2.023a.984.984,0,0,0-.034-1.332l-1.86-2.166a.983.983,0,0,0-1.311-.234l-2.284,1.556a12.99,12.99,0,0,0-4.157-2.1l-.1-2.763a.983.983,0,0,0-.966-.918l-2.847-.216a.983.983,0,0,0-1.093.761l-.516,2.717a12.988,12.988,0,0,0-4.426,1.451l-2.024-1.883a.984.984,0,0,0-1.331.034l-2.166,1.861a.984.984,0,0,0-.234,1.311l1.556,2.284a13,13,0,0,0-2.1,4.157l-2.763.1a.984.984,0,0,0-.918.965l-.216,2.847a.983.983,0,0,0,.761,1.093l2.717.515a12.988,12.988,0,0,0,1.451,4.427l-1.883,2.023a.984.984,0,0,0,.034,1.332l1.861,2.166a.984.984,0,0,0,1.311.234l2.284-1.555a12.989,12.989,0,0,0,4.157,2.1l.1,2.763a.984.984,0,0,0,.965.918l2.847.216a.984.984,0,0,0,1.093-.761l.515-2.717a12.983,12.983,0,0,0,4.427-1.451l2.023,1.883a.984.984,0,0,0,1.332-.034l2.166-1.861A.983.983,0,0,0,2219.385,542.713Zm-15.414-7.214a4.533,4.533,0,1,1,6.392.485A4.533,4.533,0,0,1,2203.971,535.5Z" transform="translate(-2158.459 -516.122)" fill="#fff"/>
          <path id="Path_5934" data-name="Path 5934" d="M2138.1,600.718l-3.491-1.808a18.474,18.474,0,0,0-.178-6.624l3.392-1.992a1.4,1.4,0,0,0,.5-1.829l-1.654-3.711a1.4,1.4,0,0,0-1.692-.854l-3.749,1.191a18.475,18.475,0,0,0-4.808-4.561l.989-3.806a1.4,1.4,0,0,0-.942-1.644l-3.793-1.454a1.4,1.4,0,0,0-1.8.593l-1.808,3.491a18.487,18.487,0,0,0-6.625.178l-1.992-3.392a1.4,1.4,0,0,0-1.829-.5l-3.71,1.654a1.4,1.4,0,0,0-.854,1.692l1.191,3.749a18.473,18.473,0,0,0-4.561,4.808l-3.805-.989a1.4,1.4,0,0,0-1.644.942l-1.455,3.793a1.4,1.4,0,0,0,.593,1.8l3.491,1.808a18.488,18.488,0,0,0,.178,6.625l-3.392,1.992a1.4,1.4,0,0,0-.5,1.829l1.654,3.711a1.4,1.4,0,0,0,1.692.854l3.749-1.191a18.473,18.473,0,0,0,4.808,4.561l-.99,3.805a1.4,1.4,0,0,0,.942,1.644l3.793,1.454a1.4,1.4,0,0,0,1.8-.593l1.808-3.491a18.479,18.479,0,0,0,6.625-.178l1.992,3.392a1.4,1.4,0,0,0,1.829.5l3.711-1.654a1.4,1.4,0,0,0,.854-1.692l-1.191-3.749a18.483,18.483,0,0,0,4.561-4.808l3.805.989a1.4,1.4,0,0,0,1.644-.942l1.454-3.793A1.4,1.4,0,0,0,2138.1,600.718Zm-24.173,1.387a6.449,6.449,0,1,1,8.33-3.713A6.449,6.449,0,0,1,2113.928,602.105Z" transform="translate(-2093.668 -554.332)" fill="#fff"/>
        </g>
      </g>
      <g id="Group_7553" data-name="Group 7553" transform="translate(-34 20)">
        <circle id="Ellipse_115" data-name="Ellipse 115" cx="48.91" cy="48.91" r="48.91" transform="translate(989.866 567.712)" fill="url(#linear-gradient-24)"/>
        <g id="Group_7537" data-name="Group 7537" transform="translate(1019.561 589.912)">
          <path id="Path_5941" data-name="Path 5941" d="M2433.3,959.452h-7.52v-1.744h-16.4v1.744h-7.519a3.5,3.5,0,0,0-3.495,3.494v44.688a3.5,3.5,0,0,0,3.495,3.495H2433.3a3.5,3.5,0,0,0,3.494-3.495V962.946A3.5,3.5,0,0,0,2433.3,959.452Zm.051,46.438h-31.546V963h7.573V964.7h16.4V963h7.57Z" transform="translate(-2398.365 -957.708)" fill="#fff"/>
          <rect id="Rectangle_785" data-name="Rectangle 785" width="21.062" height="2.967" transform="translate(8.682 10.483)" fill="#fff"/>
          <rect id="Rectangle_786" data-name="Rectangle 786" width="21.062" height="2.964" transform="translate(8.682 16.415)" fill="#fff"/>
          <rect id="Rectangle_787" data-name="Rectangle 787" width="21.062" height="2.964" transform="translate(8.682 22.346)" fill="#fff"/>
          <rect id="Rectangle_788" data-name="Rectangle 788" width="21.062" height="2.967" transform="translate(8.682 28.274)" fill="#fff"/>
        </g>
      </g>
      <g id="Group_7551" data-name="Group 7551" transform="translate(171 27)">
        <g id="Group_7554" data-name="Group 7554" transform="translate(456.052 394.967)">
          <circle id="Ellipse_119" data-name="Ellipse 119" cx="36.989" cy="36.989" r="36.989" transform="translate(0 52.311) rotate(-45)" fill="url(#linear-gradient-25)"/>
          <g id="Group_7538" data-name="Group 7538" transform="translate(36.865 32.852)">
            <path id="Path_5942" data-name="Path 5942" d="M768.383,512.628l-7.712-4.656a9.063,9.063,0,0,0,3.484-7.36c0-4.772-3.276-8.64-7.316-8.64s-7.316,3.868-7.316,8.64a9.062,9.062,0,0,0,3.484,7.36l-7.711,4.656a7.883,7.883,0,0,0-3.9,6.719v9.074a49.566,49.566,0,0,0,30.892,0v-9.074A7.883,7.883,0,0,0,768.383,512.628Z" transform="translate(-741.393 -491.971)" fill="#fff"/>
          </g>
        </g>
      </g>
      <g id="Group_7550" data-name="Group 7550" transform="translate(145 1)">
        <circle id="Ellipse_118" data-name="Ellipse 118" cx="34.285" cy="34.285" r="34.285" transform="translate(322.953 551.225) rotate(-45)" fill="url(#linear-gradient-26)"/>
        <g id="Group_7540" data-name="Group 7540" transform="translate(350.705 530.49)">
          <path id="Path_5943" data-name="Path 5943" d="M450.409,810.188a20.735,20.735,0,1,0,20.734,20.734A20.734,20.734,0,0,0,450.409,810.188Zm0,37.615a16.881,16.881,0,1,1,16.881-16.881A16.881,16.881,0,0,1,450.409,847.8Z" transform="translate(-429.675 -810.188)" fill="#fff"/>
          <g id="Group_7539" data-name="Group 7539" transform="translate(4.925 4.928)">
            <path id="Path_5944" data-name="Path 5944" d="M507.926,829.937v2.783a.8.8,0,0,1-1.6,0v-2.783a.8.8,0,0,1,1.6,0Z" transform="translate(-491.317 -829.137)" fill="#fff"/>
            <path id="Path_5945" data-name="Path 5945" d="M507.926,934.662v2.783a.8.8,0,0,1-1.6,0v-2.783a.8.8,0,0,1,1.6,0Z" transform="translate(-491.317 -906.629)" fill="#fff"/>
            <path id="Path_5946" data-name="Path 5946" d="M453,887.646a.8.8,0,0,1-.8.8h-2.781a.8.8,0,1,1,0-1.6H452.2a.8.8,0,0,1,.8.8Z" transform="translate(-448.615 -871.839)" fill="#fff"/>
            <path id="Path_5947" data-name="Path 5947" d="M557.723,887.646a.8.8,0,0,1-.8.8H554.14a.8.8,0,0,1,0-1.6h2.783a.8.8,0,0,1,.8.8Z" transform="translate(-526.107 -871.839)" fill="#fff"/>
            <path id="Path_5948" data-name="Path 5948" d="M468.855,921.455l-1.966,1.966a.8.8,0,1,1-1.133-1.132l1.966-1.966a.8.8,0,0,1,1.132,1.133Z" transform="translate(-461.125 -896.437)" fill="#fff"/>
            <path id="Path_5949" data-name="Path 5949" d="M542.9,847.4l-1.969,1.969a.8.8,0,0,1-1.133-1.133l1.969-1.969A.8.8,0,0,1,542.9,847.4Z" transform="translate(-515.915 -841.64)" fill="#fff"/>
            <path id="Path_5950" data-name="Path 5950" d="M542.906,923.421a.8.8,0,0,1-1.133,0l-1.969-1.966a.8.8,0,0,1,1.133-1.133l1.969,1.966A.8.8,0,0,1,542.906,923.421Z" transform="translate(-515.919 -896.437)" fill="#fff"/>
            <path id="Path_5951" data-name="Path 5951" d="M469.088,848.8a.8.8,0,0,1-1.369.566l-1.966-1.969a.8.8,0,1,1,1.133-1.132l1.966,1.969A.8.8,0,0,1,469.088,848.8Z" transform="translate(-461.122 -841.64)" fill="#fff"/>
          </g>
          <path id="Path_5952" data-name="Path 5952" d="M502.912,856.745l-1.908.328-6.455-3.3a.972.972,0,0,1-.193.1,1.051,1.051,0,0,1-1.227-1.61L488.45,841.8l.337-1.882,1.581,1.118,3.773,10.836a1.041,1.041,0,0,1,.8.646.962.962,0,0,1,.06.212l6.819,2.448Z" transform="translate(-473.166 -832.184)" fill="#fff"/>
        </g>
      </g>
    </g>
  </g>
</svg>
